<svg width="512" height="512" viewBox="0 0 512 512" style="color:currentColor" xmlns="http://www.w3.org/2000/svg" class="h-full w-full"><rect width="512" height="512" x="0" y="0" rx="30" fill="transparent" stroke="transparent" stroke-width="0" stroke-opacity="100%" paint-order="stroke"></rect><svg width="512" height="512" viewBox="0 0 24 24" fill="currentColor" role="img" style="display:inline-block;vertical-align:middle" xmlns="http://www.w3.org/2000/svg"><g fill="currentColor"><path fill="currentColor" d="M11.336 2.253a1 1 0 0 1 1.328 0l9 8a1 1 0 0 1-1.328 1.494L20 11.45V19a2 2 0 0 1-2 2H6a2 2 0 0 1-2-2v-7.55l-.336.297a1 1 0 0 1-1.328-1.494l9-8zM6 9.67V19h3v-5a1 1 0 0 1 1-1h4a1 1 0 0 1 1 1v5h3V9.671l-6-5.333l-6 5.333zM13 19v-4h-2v4h2z"/></g></svg></svg>