<svg width="512" height="512" viewBox="0 0 512 512" style="color:currentColor" xmlns="http://www.w3.org/2000/svg" class="h-full w-full"><rect width="512" height="512" x="0" y="0" rx="30" fill="transparent" stroke="transparent" stroke-width="0" stroke-opacity="100%" paint-order="stroke"></rect><svg width="512" height="512" viewBox="0 0 24 24" fill="currentColor" role="img" style="display:inline-block;vertical-align:middle" xmlns="http://www.w3.org/2000/svg"><g fill="currentColor"><path fill="currentColor" d="M21.707 3.707a1 1 0 0 0-1.414-1.414L16 6.586V5a1 1 0 1 0-2 0v4a1 1 0 0 0 1 1h4a1 1 0 1 0 0-2h-1.586l4.293-4.293zm-19.414 18a1 1 0 0 1 0-1.414L6.586 16H5a1 1 0 1 1 0-2h4a1 1 0 0 1 1 1v4a1 1 0 1 1-2 0v-1.586l-4.293 4.293a1 1 0 0 1-1.414 0z"/></g></svg></svg>