<svg width="512" height="512" viewBox="0 0 512 512" style="color:currentColor" xmlns="http://www.w3.org/2000/svg" class="h-full w-full"><rect width="512" height="512" x="0" y="0" rx="30" fill="transparent" stroke="transparent" stroke-width="0" stroke-opacity="100%" paint-order="stroke"></rect><svg width="512" height="512" viewBox="0 0 24 24" fill="currentColor" role="img" style="display:inline-block;vertical-align:middle" xmlns="http://www.w3.org/2000/svg"><g fill="currentColor"><path fill="currentColor" d="M9.36 3.293a1 1 0 0 1 .187 1.157A7.45 7.45 0 0 0 19.55 14.453a1 1 0 0 1 1.343 1.343a9.45 9.45 0 1 1-12.69-12.69a1 1 0 0 1 1.158.187zM6.823 6.67A7.45 7.45 0 0 0 17.33 17.179A9.45 9.45 0 0 1 6.821 6.67z"/></g></svg></svg>