<svg width="512" height="512" viewBox="0 0 512 512" style="color:currentColor" xmlns="http://www.w3.org/2000/svg" class="h-full w-full"><rect width="512" height="512" x="0" y="0" rx="30" fill="transparent" stroke="transparent" stroke-width="0" stroke-opacity="100%" paint-order="stroke"></rect><svg width="512" height="512" viewBox="0 0 24 24" fill="currentColor" role="img" style="display:inline-block;vertical-align:middle" xmlns="http://www.w3.org/2000/svg"><g fill="currentColor"><path fill="currentColor" d="M12 4a4 4 0 1 0 0 8a4 4 0 0 0 0-8zM6 8a6 6 0 1 1 12 0A6 6 0 0 1 6 8zm2 10a3 3 0 0 0-3 3a1 1 0 1 1-2 0a5 5 0 0 1 5-5h8a5 5 0 0 1 5 5a1 1 0 1 1-2 0a3 3 0 0 0-3-3H8z"/></g></svg></svg>